<svg width="1440" height="396" viewBox="0 0 1440 396" fill="none" xmlns="http://www.w3.org/2000/svg">
<g opacity="0.05">
<path d="M0 68.8906C10.8491 67.9408 22.0457 68.0943 33.21 70.707C44.6706 73.3917 55.5608 79.1472 63.9004 86.9326C73.4983 95.9093 79.2197 106.899 80.4111 118.729C83.1798 146.212 62.2898 166.952 45.4932 183.613L44.2002 184.905C18.7795 210.14 22.2694 225.375 24.9541 230.762C31.0955 243.044 49.6542 246.132 69.79 248.447C103.786 252.357 124.912 266.417 129.258 288.079C133.721 310.278 118.233 332.46 87.8115 347.443L85.6299 348.517C68.9675 356.705 51.7348 365.162 48.6641 379.239C47.4406 384.842 48.7252 390.371 51.1289 395.373H26.0117C24.2084 388.273 24.0097 381.133 25.5244 374.188C31.0283 348.936 55.5099 336.922 75.1758 327.274L77.3242 326.218C92.9126 318.533 108.635 305.713 106.034 292.743C103.013 277.659 77.7767 273.179 67.0713 271.954C46.7846 269.639 16.1286 266.115 3.76172 241.316C1.97197 237.726 0.722121 234.005 0 230.18V213.906C2.57619 199.268 11.8573 183.655 27.5049 168.109L28.8135 166.817C43.4119 152.337 58.4968 137.37 56.8525 121.095C55.4598 107.286 41.1803 96.8828 27.79 93.7451C18.8671 91.6532 9.49069 91.6774 0 92.6504V68.8906Z" fill="black"/>
<path d="M183.423 336.47C212.116 335.161 239.434 347.426 254.721 368.417C260.663 376.578 264.508 385.856 266.284 395.373H241.889C240.557 390.73 238.459 386.282 235.592 382.344C225.088 367.914 205.019 359.189 184.48 360.111C172.063 360.682 155.383 365.849 149.259 378.618C146.736 383.891 146.29 389.703 146.978 395.373H123.225C122.484 385.617 124.032 376.48 127.915 368.383C138.554 346.201 163.556 337.359 183.423 336.47Z" fill="black"/>
<path d="M263.949 212.322C280.477 210.107 295.227 215.107 305.463 226.383C329.777 253.212 317.678 289.036 308.835 315.194C307.224 319.993 305.681 324.54 304.473 328.685C301.318 339.473 301.587 353.5 309.607 358.819C315.933 363.014 326.102 360.85 333.485 357.41C337.999 355.296 342.412 352.611 347.094 349.775C353.134 346.101 359.36 342.326 366.424 339.423C395.386 327.56 431.412 335.999 452.068 359.507C460.622 369.237 466.354 381.93 468.797 395.373H444.606C442.625 387.695 439.112 380.592 434.281 375.095C420.304 359.188 395 353.249 375.401 361.286C370.065 363.467 364.88 366.622 359.393 369.961C354.376 373.015 349.174 376.168 343.469 378.819C326.135 386.873 309.02 386.756 296.553 378.501C284.454 370.481 273.312 350.883 281.77 321.989C283.129 317.375 284.723 312.61 286.435 307.576C296.1 279.002 301.855 257.575 287.944 242.239C282.944 236.753 275.93 234.554 267.087 235.745C250.173 238.01 232.604 251.752 226.815 263.162C223.862 268.984 216.731 271.3 210.908 268.347C205.086 265.394 202.77 258.263 205.724 252.44V252.474C215.775 232.675 240.81 215.426 263.949 212.322Z" fill="black"/>
<path d="M520.026 395.162C520.783 395.162 521.522 395.237 522.239 395.373H517.812C518.53 395.237 519.27 395.162 520.026 395.162Z" fill="black"/>
<path d="M585.1 395.373C624.591 351.805 684.712 327.369 743.467 332.191C749.977 332.712 754.827 338.433 754.29 344.943C753.77 351.453 748.064 356.302 741.537 355.766C697.628 352.169 652.854 367.198 619.156 395.373H585.1Z" fill="black"/>
<path d="M818.758 269.22C825.285 269.438 830.419 274.908 830.201 281.435C829.396 306.217 828.557 331.838 822.685 357.007L822.65 357.023C819.378 371.034 814.657 383.915 808.644 395.373H781.087C789.372 383.375 795.68 368.557 799.629 351.638C804.982 328.735 805.77 304.305 806.542 280.663C806.76 274.119 812.264 269.002 818.758 269.22Z" fill="black"/>
<path d="M946.754 101.396C970.95 98.0062 994.929 102.873 1014.29 115.088L1014.26 115.121C1047.57 136.128 1067.45 184.133 1057.7 219.923C1050.67 245.712 1029.14 261.048 998.621 261.987C977.713 262.608 956.453 252.675 943.18 235.997C931.619 221.466 927.306 203.412 931.652 187.707C937.072 168.109 956.016 154.887 974.793 157.605C985.381 159.132 995.063 166.465 1000.08 176.75C1004.76 186.381 1004.64 196.785 999.762 205.325C996.523 210.98 989.291 212.959 983.619 209.704C977.965 206.466 975.985 199.234 979.24 193.562C980.565 191.247 979.391 188.295 978.82 187.12C977.243 183.882 974.273 181.432 971.421 181.013C964.592 180.023 956.654 186.096 954.473 193.999C952.174 202.305 954.96 212.741 961.722 221.248C970.43 232.188 984.324 238.732 997.916 238.312C1018.17 237.675 1030.62 229.386 1034.9 213.664C1041.78 188.395 1025.62 150.206 1001.66 135.088C971.304 115.926 927.139 122.118 903.211 148.863C887.958 165.911 879.652 190.828 879.786 219.067C879.92 246.014 887.32 272.945 895.308 298.046L896.935 303.146C904.972 328.265 913.312 354.256 909.62 381.689C909.005 386.277 908.041 390.846 906.746 395.373H881.851C883.965 389.822 885.422 384.191 886.179 378.552C889.149 356.403 881.648 333.013 874.399 310.378L872.755 305.228C864.197 278.348 856.277 249.319 856.126 219.201C855.958 185.09 866.429 154.518 885.575 133.108C900.845 116.044 922.558 104.785 946.754 101.396Z" fill="black"/>
<path d="M1010.5 366.102C1023.09 354.373 1043.31 351.437 1062.05 358.618C1077.28 364.457 1089.17 375.262 1099.65 384.81C1102.7 387.582 1103.96 391.584 1103.38 395.373H1075.96C1068.96 389.317 1061.63 383.804 1053.57 380.716C1045.1 377.461 1033.47 377.024 1026.64 383.4C1023.36 386.468 1021.56 390.708 1020.8 395.373H996.989C998.004 384.583 1001.97 374.092 1010.48 366.151L1010.5 366.102Z" fill="black"/>
<path d="M1084.85 264.639C1090.69 261.703 1097.79 264.068 1100.73 269.907C1115.07 298.532 1152.51 313.181 1182.48 301.905C1191.72 298.432 1200.3 292.861 1209.39 286.955C1215.01 283.314 1220.82 279.539 1226.96 276.166C1249.5 263.8 1271.36 261.535 1288.54 269.773V269.79C1310.73 280.428 1319.57 305.429 1320.46 325.295C1321.7 353.242 1310.12 379.883 1290.12 395.373H1209.99C1209.72 395.143 1209.45 394.911 1209.19 394.676C1204.31 390.313 1203.89 382.83 1208.25 377.964C1212.61 373.081 1220.1 372.662 1224.96 377.024C1237.38 388.132 1259.65 388.317 1274.58 377.444C1289.01 366.941 1297.74 346.872 1296.82 326.335C1296.24 313.919 1291.08 297.241 1278.31 291.116C1264.66 284.589 1247.41 291.955 1238.34 296.922C1232.97 299.858 1227.78 303.231 1222.28 306.805C1212.53 313.13 1202.45 319.673 1190.82 324.053C1150.06 339.389 1099.11 319.456 1079.58 280.512C1076.65 274.673 1079.01 267.575 1084.85 264.639Z" fill="black"/>
<path d="M1388.55 352.762C1391.5 346.94 1398.64 344.624 1404.46 347.577C1419.44 355.183 1432.96 371.37 1440 388.821V395.373H1417.09C1411.65 383.422 1402.07 372.911 1393.74 368.669C1387.91 365.716 1385.6 358.584 1388.55 352.762Z" fill="black"/>
<path d="M1137.81 372.41C1142.43 367.791 1149.92 367.791 1154.54 372.41C1159.16 377.03 1159.16 384.52 1154.54 389.14C1149.92 393.759 1142.43 393.759 1137.81 389.14C1133.19 384.52 1133.19 377.03 1137.81 372.41Z" fill="black"/>
<path d="M652.52 286.603C659.013 285.898 664.836 290.613 665.541 297.106C666.246 303.6 661.531 309.439 655.037 310.127C633.005 312.476 610.235 314.908 590.065 323.113C569.057 331.671 553.586 346.134 547.612 362.796C545.884 367.628 541.32 370.648 536.471 370.648C535.145 370.648 533.802 370.431 532.477 369.961C526.335 367.763 523.131 361.001 525.329 354.843C533.568 331.839 553.905 312.308 581.139 301.217C604.395 291.737 628.86 289.136 652.52 286.603Z" fill="black"/>
<path d="M1044.65 280.344C1049.56 276.048 1057.05 276.552 1061.34 281.468C1065.64 286.384 1065.14 293.868 1060.22 298.163C1037.01 318.432 1006.59 329.255 976.085 329.255C962.024 329.255 947.946 326.956 934.556 322.225C928.397 320.043 925.158 313.281 927.34 307.123C929.521 300.965 936.283 297.727 942.441 299.908C976.437 311.922 1017.5 304.052 1044.65 280.344Z" fill="black"/>
<path d="M22.8232 294.422C28.8135 291.838 35.777 294.589 38.3779 300.579C40.9788 306.569 38.2101 313.533 32.2197 316.134C22.7609 320.234 11.8075 324.976 0 327.535V303.149C7.84253 300.91 15.601 297.554 22.8232 294.422Z" fill="black"/>
<path d="M1376.82 303.976C1381.44 299.356 1388.93 299.356 1393.55 303.976C1398.17 308.595 1398.17 316.085 1393.55 320.704C1388.93 325.324 1381.44 325.324 1376.82 320.704C1372.2 316.085 1372.2 308.595 1376.82 303.976Z" fill="black"/>
<path d="M302.358 0.0341797C306.268 3.17186 307.913 8.57483 306.017 13.5078C296.251 38.9951 287.156 70.5395 303.65 88.5098C314.725 100.574 333.888 102.386 354.191 104.315C377.348 106.513 403.574 108.997 420.572 128.746C440.674 152.102 435.573 184.603 429.23 213.245C424.431 234.89 420.774 261.534 435.171 275.562C447.789 287.861 477.389 286.82 503.213 263.716C510.462 257.222 517.157 249.974 524.238 242.289C539.139 226.131 554.559 209.419 575.903 199.889C618.658 180.794 665.995 198.177 704.018 212.154C742.51 226.282 782.346 236.92 812.801 219.185C818.439 215.896 825.688 217.792 828.977 223.446C832.265 229.084 830.353 236.332 824.715 239.621C785.685 262.357 737.678 249.722 695.862 234.353C661.85 221.869 619.514 206.315 585.552 221.483C568.654 229.034 555.516 243.263 541.622 258.33C534.474 266.065 527.091 274.086 518.986 281.334C505.227 293.65 487.725 302.593 470.945 305.865C466.113 306.805 461.414 307.274 456.867 307.274C441.883 307.274 428.643 302.224 418.659 292.509C395.889 270.327 400 235.762 406.125 208.11C411.461 184.016 415.605 159.234 402.635 144.166C391.862 131.632 372.482 129.803 351.96 127.856C329.223 125.709 303.432 123.259 286.216 104.5C257.69 73.4421 276.752 23.7428 283.917 5.03418C284.706 2.98725 285.998 1.30936 287.592 0.0341797H302.358Z" fill="black"/>
<path d="M170.485 259.907C177.013 259.907 182.315 265.209 182.315 271.736C182.315 278.263 177.013 283.565 170.485 283.565C163.958 283.565 158.656 278.263 158.656 271.736C158.656 265.209 163.958 259.907 170.485 259.907Z" fill="black"/>
<path d="M1036.48 0C1036.16 4.02695 1036.09 8.08793 1036.33 12.1484C1038.09 41.562 1054.83 69.3315 1080.04 84.6172C1082.6 86.1609 1085.31 87.654 1088.17 89.248C1100.96 96.3288 1115.46 104.332 1121.7 120.373C1128.21 137.085 1122.22 153.142 1116.95 167.304C1114.87 172.891 1112.91 178.16 1111.75 183.193C1107.2 202.992 1116.3 225.359 1133.36 236.366C1150.43 247.373 1174.56 246.433 1190.72 234.135C1199.12 227.742 1205.63 218.648 1212.53 209.017C1216.1 204.017 1219.81 198.848 1223.91 193.898C1241.44 172.707 1262.89 163.042 1282.74 167.388C1307.99 172.891 1320 197.372 1329.65 217.037L1330.71 219.185C1338.4 234.772 1351.22 250.494 1364.19 247.894C1379.27 244.873 1383.75 219.638 1384.98 208.933C1387.29 188.647 1390.82 157.991 1415.62 145.625C1423.24 141.827 1431.44 140.453 1440 141.425V165.48C1433.24 164.103 1428.62 165.521 1426.12 166.767C1413.84 172.908 1410.75 191.466 1408.43 211.601C1404.52 245.595 1390.46 266.72 1368.8 271.065C1366.28 271.569 1363.77 271.82 1361.27 271.82C1341.67 271.82 1322.71 256.585 1309.43 229.621L1308.36 227.456C1300.17 210.795 1291.71 193.563 1277.64 190.492C1261.71 187.019 1246.41 203.748 1242.1 208.966C1238.54 213.261 1235.23 217.893 1231.73 222.775C1224.11 233.396 1216.24 244.386 1205.01 252.943C1180.82 271.367 1146.05 272.726 1120.49 256.232C1094.94 239.739 1081.83 207.523 1088.64 177.875C1090.15 171.331 1092.49 165.089 1094.74 159.032C1099.1 147.337 1102.86 137.253 1099.62 128.947C1096.48 120.893 1086.88 115.574 1076.7 109.937C1073.76 108.309 1070.71 106.631 1067.75 104.836C1036.01 85.5904 1014.91 50.6224 1012.7 13.5576C1012.43 9.02738 1012.45 4.49668 1012.73 0H1036.48Z" fill="black"/>
<path d="M490.661 127.186C497.172 126.514 502.978 131.262 503.633 137.756C505.781 158.981 508.213 183.009 502.793 206.214C496.316 233.882 479.067 255.276 456.666 263.414C455.324 263.901 453.964 264.136 452.622 264.136C447.789 264.136 443.242 261.148 441.497 256.35C439.265 250.225 442.437 243.43 448.578 241.198L448.595 241.182C466.096 234.822 476.164 216.164 479.755 200.828C484.285 181.482 482.154 160.475 480.09 140.155C479.419 133.645 484.168 127.84 490.661 127.186Z" fill="black"/>
<path d="M348.905 183.429C355.433 183.429 360.735 188.731 360.735 195.258C360.735 201.785 355.433 207.087 348.905 207.087C342.378 207.087 337.076 201.785 337.076 195.258C337.076 188.731 342.378 183.429 348.905 183.429Z" fill="black"/>
<path d="M195.907 0.0175781C171.526 19.7329 154.78 39.9681 144.812 61.7305C132.177 89.3487 131.64 119.551 143.369 142.521C155.803 166.851 184.262 181.784 208.156 176.516C220.489 173.797 231.783 164.821 238.344 152.505C244.015 141.85 245.106 130.256 241.33 120.658C237.169 110.071 227.705 102.252 217.771 101.194C208.257 100.171 198.004 106.597 195.84 114.937C194.833 118.812 195.907 123.578 198.643 127.387C200.992 130.642 204.163 132.655 207.317 132.873C213.828 133.326 218.744 138.998 218.274 145.508C217.821 152.018 212.15 156.918 205.64 156.465C195.438 155.743 185.89 150.172 179.43 141.179C172.6 131.665 170.167 119.635 172.936 108.98C178.087 89.1477 198.877 75.4049 220.271 77.6533C239.031 79.65 255.946 93.1238 263.362 111.983C269.671 128.024 268.161 146.85 259.234 163.612C249.469 181.968 232.269 195.409 213.258 199.604C208.341 200.694 203.307 201.214 198.273 201.214V201.231C168.053 201.231 137.211 182.421 122.311 153.276C107.31 123.913 107.679 86.0092 123.301 51.8809C131.657 33.6255 143.923 16.4776 160.451 0.0175781H195.907Z" fill="black"/>
<path d="M1194.12 154.619C1199.63 151.112 1206.94 152.723 1210.47 158.227C1213.97 163.73 1212.36 171.046 1206.86 174.569L1170.93 197.506C1168.95 198.764 1166.75 199.368 1164.57 199.368C1160.66 199.368 1156.85 197.439 1154.59 193.898C1151.08 188.395 1152.69 181.079 1158.2 177.556L1194.12 154.619Z" fill="black"/>
<path d="M1440 100.974C1431 106.827 1420.55 109.857 1410.04 109.063C1401.82 108.443 1394.34 105.624 1387.73 103.141C1380.65 100.473 1374.52 98.1741 1369.05 98.8115C1358.83 100.003 1351.84 112.285 1351.23 122.99C1350.44 136.866 1356.84 151.649 1362.49 164.687C1365.09 170.677 1362.32 177.64 1356.33 180.24C1354.81 180.895 1353.21 181.214 1351.63 181.214C1347.07 181.214 1342.71 178.546 1340.78 174.083H1340.75C1334.39 159.402 1326.46 141.112 1327.59 121.632C1328.75 101.229 1342.71 78.0566 1366.28 75.3047C1377.46 74.0127 1387.33 77.7037 1396.03 80.9756C1401.66 83.0897 1406.96 85.0869 1411.81 85.4561C1424.02 86.395 1435.26 76.3805 1440 65.4961V100.974Z" fill="black"/>
<path d="M594.395 0.0175781C594.294 2.81956 593.22 5.58834 591.14 7.76953C569.661 30.2198 557.748 60.9255 558.419 91.9834C558.687 104.5 561.137 113.712 565.919 120.172C570.08 125.81 578.269 130.256 584.746 127.94C591.206 125.625 595.77 117.386 600.586 108.678C607.063 96.966 614.413 83.7111 629.515 78.5264C646.58 72.6873 663.846 81.3119 674.316 91.3457C680.357 97.1344 685.039 103.594 689.553 109.853C692.288 113.628 694.872 117.202 697.641 120.474C720.142 147.085 761.051 156.296 792.799 141.917C798.739 139.216 805.754 141.85 808.455 147.807C811.157 153.746 808.522 160.76 802.565 163.462C789.528 169.368 775.264 172.203 760.968 172.203C730.311 172.203 699.403 159.199 679.569 135.742C676.213 131.782 673.243 127.672 670.374 123.695C666.297 118.058 662.454 112.722 657.957 108.427C652.353 103.074 643.761 98.661 637.2 100.909C630.723 103.141 626.36 111.01 621.31 120.138C614.883 131.749 607.6 144.904 592.733 150.223C576.91 155.894 558.049 149.317 546.907 134.249C539.122 123.729 535.161 110.07 534.775 92.5029C534.037 59.0289 545.532 25.9411 566.523 0.0175781H594.395Z" fill="black"/>
<path d="M1221.56 2.90332C1223.45 8.02088 1225.42 13.323 1226.96 18.8936C1233.35 41.8808 1231.73 66.63 1222.4 88.5938C1214.91 106.195 1198.89 125.239 1176.39 125.894H1175.28C1158.47 125.893 1141.87 114.836 1132.74 97.4531L1132.76 97.4697C1125.17 83.023 1123.4 67.066 1121.82 52.9717C1121.08 46.4784 1125.76 40.6231 1132.25 39.9014C1138.75 39.1799 1144.61 43.8444 1145.33 50.3379C1146.74 62.9388 1148.18 75.9594 1153.7 86.4629C1157.91 94.5167 1166.3 102.521 1175.7 102.235C1187.06 101.9 1196.22 89.6839 1200.63 79.3145C1207.88 62.284 1209.14 43.0724 1204.17 25.2197C1202.9 20.6056 1201.19 15.991 1199.38 11.1084C1198.03 7.48419 1196.67 3.80939 1195.45 0.0341797H1220.5C1220.85 0.990582 1221.21 1.94692 1221.56 2.90332Z" fill="black"/>
<path d="M1255.52 99.4326C1262.05 99.4326 1267.35 104.729 1267.35 111.262C1267.35 117.795 1262.05 123.091 1255.52 123.091C1248.99 123.091 1243.69 117.795 1243.69 111.262C1243.69 104.729 1248.99 99.4329 1255.52 99.4326Z" fill="black"/>
<path d="M482.977 70.0859C489.504 70.086 494.807 75.389 494.807 81.916C494.806 88.4428 489.504 93.7451 482.977 93.7451C476.449 93.7451 471.147 88.4428 471.146 81.916C471.146 75.389 476.449 70.0859 482.977 70.0859Z" fill="black"/>
<path d="M746.923 63.9287C753.45 63.9287 758.753 69.2308 758.753 75.7578C758.753 82.2848 753.45 87.5869 746.923 87.5869C740.396 87.5867 735.094 82.2846 735.094 75.7578C735.094 69.2309 740.396 63.9289 746.923 63.9287Z" fill="black"/>
<path d="M802.716 29.4648C807.196 24.6996 814.68 24.4646 819.445 28.9277C833.876 42.4683 854.633 51.7809 879.483 55.875C902.69 59.7006 927.122 58.8785 950.765 58.0898C957.275 57.8549 962.762 62.9887 962.98 69.5156C963.199 76.0425 958.081 81.5131 951.554 81.7314C941.419 82.067 931.116 82.4189 920.763 82.4189C905.812 82.4189 890.71 81.6971 875.642 79.2139V79.2305C846.143 74.3646 821.123 62.9555 803.253 46.1934C798.488 41.7135 798.253 34.2301 802.716 29.4648Z" fill="black"/>
<path d="M359.292 0C359.946 0.889257 360.484 1.86271 360.87 2.93652C370.099 28.3399 395.369 47.6868 422.301 49.9688C449.216 52.2506 477.389 37.4514 490.779 13.9609C494.018 8.28971 501.249 6.30969 506.921 9.54785C512.592 12.7862 514.572 20.0182 511.334 25.6895C494.521 55.1699 461.716 73.8779 427.955 73.8779C425.405 73.8779 422.838 73.7777 420.287 73.5596V73.543C383.908 70.4556 351.087 45.3375 338.619 11.0244C337.226 7.16525 337.931 3.07055 340.18 0H359.292Z" fill="black"/>
<path d="M1311.23 9.73242C1314.35 3.99401 1321.52 1.84608 1327.27 4.9502C1333.03 8.07109 1335.16 15.236 1332.05 20.9912L1311.78 58.4922C1309.63 62.4518 1305.57 64.7002 1301.36 64.7002C1299.45 64.7002 1297.54 64.2475 1295.74 63.2744C1289.99 60.1535 1287.85 52.9886 1290.96 47.2334L1311.23 9.73242Z" fill="black"/>
<path d="M676.18 0.0175781C677.421 3.15517 677.32 6.79648 675.592 9.98438L655.322 47.4854C653.174 51.4451 649.113 53.6934 644.901 53.6934C642.989 53.6933 641.076 53.2397 639.28 52.2666C633.525 49.1456 631.394 41.9816 634.498 36.2266L654.08 0.0175781H676.18Z" fill="black"/>
<path d="M17.3867 44.8848H17.3701C17.3724 44.8848 17.3747 44.8838 17.377 44.8838C17.3801 44.8838 17.3835 44.8848 17.3867 44.8848Z" fill="black"/>
<path d="M63.4805 0.0175781C55.2416 21.2763 40.1401 37.3508 21.4141 44.1631C20.0741 44.6488 18.717 44.8829 17.377 44.8838C12.5479 44.8799 8.00569 41.8944 6.26172 37.082C4.03 30.9577 7.20135 24.1623 13.3428 21.9307C24.0482 18.0379 31.9518 9.53118 37.3213 0.0175781H63.4805Z" fill="black"/>
<path d="M1440 25.9775C1439.1 23.0066 1438.11 20.219 1437.09 17.6855C1435.24 13.0264 1436.55 7.89601 1440 4.66699V25.9775Z" fill="black"/>
</g>
</svg>
