<svg width="1440" height="926" viewBox="0 0 1440 926" fill="none" xmlns="http://www.w3.org/2000/svg">
<rect width="1440" height="926" fill="#008B29"/>
<rect width="1440" height="926" fill="white" fill-opacity="0.4"/>
<g opacity="0.05">
<path d="M0 597.518C10.8491 596.568 22.0457 596.721 33.21 599.334C44.6706 602.019 55.5608 607.774 63.9004 615.56C73.4983 624.536 79.2197 635.526 80.4111 647.355C83.1798 674.839 62.2898 695.579 45.4932 712.24L44.2002 713.532C18.7795 738.767 22.2694 754.002 24.9541 759.389C31.0955 771.671 49.6542 774.759 69.79 777.074C103.786 780.984 124.912 795.044 129.258 816.706C133.721 838.905 118.233 861.087 87.8115 876.07L85.6299 877.144C68.9675 885.332 51.7348 893.789 48.6641 907.866C47.4406 913.469 48.7252 918.998 51.1289 924H26.0117C24.2084 916.9 24.0097 909.76 25.5244 902.815C31.0283 877.563 55.5099 865.549 75.1758 855.901L77.3242 854.845C92.9126 847.16 108.635 834.34 106.034 821.37C103.013 806.286 77.7767 801.806 67.0713 800.581C46.7846 798.266 16.1286 794.742 3.76172 769.943C1.97197 766.353 0.722121 762.632 0 758.807V742.533C2.57619 727.895 11.8573 712.282 27.5049 696.736L28.8135 695.444C43.4119 680.964 58.4968 665.997 56.8525 649.722C55.4598 635.913 41.1803 625.51 27.79 622.372C18.8671 620.28 9.49069 620.304 0 621.277V597.518Z" fill="black"/>
<path d="M183.423 865.097C212.116 863.788 239.434 876.053 254.721 897.044C260.663 905.205 264.508 914.483 266.284 924H241.889C240.557 919.357 238.459 914.909 235.592 910.971C225.088 896.541 205.019 887.816 184.48 888.738C172.063 889.309 155.383 894.476 149.259 907.245C146.736 912.518 146.29 918.33 146.978 924H123.225C122.484 914.244 124.032 905.107 127.915 897.01C138.554 874.828 163.556 865.986 183.423 865.097Z" fill="black"/>
<path d="M263.949 740.949C280.477 738.734 295.227 743.734 305.463 755.01C329.777 781.839 317.678 817.663 308.835 843.821C307.224 848.62 305.681 853.167 304.473 857.312C301.318 868.1 301.587 882.127 309.607 887.446C315.933 891.641 326.102 889.477 333.485 886.037C337.999 883.923 342.412 881.238 347.094 878.402C353.134 874.728 359.36 870.953 366.424 868.05C395.386 856.187 431.412 864.626 452.068 888.134C460.622 897.864 466.354 910.557 468.797 924H444.606C442.625 916.321 439.112 909.219 434.281 903.722C420.304 887.815 395 881.876 375.401 889.913C370.065 892.094 364.88 895.249 359.393 898.588C354.376 901.642 349.174 904.795 343.469 907.446C326.135 915.5 309.02 915.383 296.553 907.128C284.454 899.108 273.312 879.51 281.77 850.616C283.129 846.002 284.723 841.237 286.435 836.203C296.1 807.629 301.855 786.202 287.944 770.866C282.944 765.379 275.93 763.181 267.087 764.372C250.173 766.637 232.604 780.379 226.815 791.789C223.862 797.611 216.731 799.927 210.908 796.974C205.086 794.02 202.77 786.89 205.724 781.067V781.101C215.775 761.302 240.81 744.053 263.949 740.949Z" fill="black"/>
<path d="M520.026 923.789C520.783 923.789 521.522 923.864 522.239 924H517.812C518.53 923.864 519.27 923.789 520.026 923.789Z" fill="black"/>
<path d="M585.1 924C624.591 880.431 684.712 855.996 743.467 860.818C749.977 861.339 754.827 867.06 754.29 873.57C753.77 880.08 748.064 884.929 741.537 884.393C697.628 880.796 652.854 895.825 619.156 924H585.1Z" fill="black"/>
<path d="M818.758 797.847C825.285 798.065 830.419 803.535 830.201 810.062C829.396 834.844 828.557 860.465 822.685 885.634L822.65 885.65C819.378 899.661 814.657 912.542 808.644 924H781.087C789.372 912.002 795.68 897.184 799.629 880.265C804.982 857.362 805.77 832.931 806.542 809.29C806.76 802.746 812.264 797.629 818.758 797.847Z" fill="black"/>
<path d="M946.754 630.022C970.95 626.633 994.929 631.5 1014.29 643.715L1014.26 643.748C1047.57 664.755 1067.45 712.76 1057.7 748.55C1050.67 774.339 1029.14 789.674 998.621 790.614C977.713 791.235 956.453 781.302 943.18 764.624C931.619 750.093 927.306 732.039 931.652 716.334C937.072 696.736 956.016 683.514 974.793 686.232C985.381 687.759 995.063 695.092 1000.08 705.377C1004.76 715.008 1004.64 725.412 999.762 733.952C996.523 739.607 989.291 741.586 983.619 738.331C977.965 735.093 975.985 727.861 979.24 722.189C980.565 719.874 979.391 716.922 978.82 715.747C977.243 712.509 974.273 710.059 971.421 709.64C964.592 708.65 956.654 714.723 954.473 722.626C952.174 730.932 954.96 741.368 961.722 749.875C970.43 760.815 984.324 767.359 997.916 766.939C1018.17 766.302 1030.62 758.013 1034.9 742.291C1041.78 717.022 1025.62 678.833 1001.66 663.715C971.304 644.553 927.139 650.745 903.211 677.49C887.958 694.538 879.652 719.455 879.786 747.694C879.92 774.641 887.32 801.572 895.308 826.673L896.935 831.773C904.972 856.892 913.312 882.883 909.62 910.316C909.005 914.904 908.041 919.473 906.746 924H881.851C883.965 918.449 885.422 912.818 886.179 907.179C889.149 885.03 881.648 861.64 874.399 839.005L872.755 833.854C864.197 806.975 856.277 777.946 856.126 747.828C855.958 713.716 866.429 683.145 885.575 661.735C900.845 644.671 922.557 633.412 946.754 630.022Z" fill="black"/>
<path d="M1010.5 894.729C1023.09 883 1043.31 880.064 1062.05 887.245C1077.28 893.084 1089.17 903.889 1099.65 913.437C1102.7 916.209 1103.96 920.211 1103.38 924H1075.96C1068.96 917.944 1061.63 912.431 1053.57 909.343C1045.1 906.088 1033.47 905.651 1026.64 912.027C1023.36 915.095 1021.56 919.334 1020.8 924H996.989C998.004 913.21 1001.97 902.719 1010.48 894.778L1010.5 894.729Z" fill="black"/>
<path d="M1084.85 793.266C1090.69 790.33 1097.79 792.695 1100.73 798.534C1115.07 827.159 1152.51 841.808 1182.48 830.532C1191.72 827.059 1200.3 821.488 1209.39 815.582C1215.01 811.941 1220.82 808.165 1226.96 804.793C1249.5 792.427 1271.36 790.162 1288.54 798.4V798.417C1310.73 809.055 1319.57 834.056 1320.46 853.922C1321.7 881.869 1310.12 908.51 1290.12 924H1209.99C1209.72 923.77 1209.45 923.538 1209.19 923.303C1204.31 918.94 1203.89 911.457 1208.25 906.591C1212.61 901.708 1220.1 901.289 1224.96 905.651C1237.38 916.759 1259.65 916.944 1274.58 906.071C1289.01 895.568 1297.74 875.499 1296.82 854.962C1296.24 842.545 1291.08 825.867 1278.31 819.743C1264.66 813.216 1247.41 820.582 1238.34 825.549C1232.97 828.485 1227.78 831.858 1222.28 835.432C1212.53 841.757 1202.45 848.3 1190.82 852.68C1150.06 868.016 1099.11 848.083 1079.58 809.139C1076.65 803.3 1079.01 796.202 1084.85 793.266Z" fill="black"/>
<path d="M1388.55 881.389C1391.5 875.567 1398.64 873.251 1404.46 876.204C1419.44 883.81 1432.96 899.997 1440 917.448V924H1417.09C1411.65 912.049 1402.07 901.538 1393.74 897.296C1387.91 894.343 1385.6 887.211 1388.55 881.389Z" fill="black"/>
<path d="M1137.81 901.037C1142.43 896.418 1149.92 896.418 1154.54 901.037C1159.16 905.657 1159.16 913.147 1154.54 917.767C1149.92 922.386 1142.43 922.386 1137.81 917.767C1133.19 913.147 1133.19 905.657 1137.81 901.037Z" fill="black"/>
<path d="M652.52 815.229C659.013 814.525 664.836 819.24 665.541 825.733C666.246 832.227 661.531 838.066 655.037 838.754C633.005 841.103 610.235 843.535 590.065 851.74C569.057 860.298 553.586 874.761 547.612 891.423C545.884 896.255 541.32 899.275 536.471 899.275C535.145 899.275 533.802 899.058 532.477 898.588C526.335 896.39 523.131 889.628 525.329 883.47C533.568 860.466 553.905 840.935 581.139 829.844C604.395 820.364 628.86 817.763 652.52 815.229Z" fill="black"/>
<path d="M1044.65 808.971C1049.56 804.675 1057.05 805.179 1061.34 810.095C1065.64 815.011 1065.14 822.495 1060.22 826.79C1037.01 847.059 1006.59 857.882 976.085 857.882C962.024 857.882 947.946 855.583 934.556 850.852C928.397 848.67 925.158 841.908 927.34 835.75C929.521 829.592 936.283 826.354 942.441 828.535C976.437 840.549 1017.5 832.679 1044.65 808.971Z" fill="black"/>
<path d="M22.8232 823.049C28.8135 820.465 35.777 823.216 38.3779 829.206C40.9788 835.196 38.2101 842.16 32.2197 844.761C22.7609 848.861 11.8075 853.603 0 856.162V831.776C7.84253 829.537 15.601 826.181 22.8232 823.049Z" fill="black"/>
<path d="M1376.82 832.603C1381.44 827.983 1388.93 827.983 1393.55 832.603C1398.17 837.222 1398.17 844.711 1393.55 849.331C1388.93 853.951 1381.44 853.951 1376.82 849.331C1372.2 844.711 1372.2 837.222 1376.82 832.603Z" fill="black"/>
<path d="M302.358 528.661C306.268 531.799 307.913 537.202 306.017 542.135C296.251 567.622 287.156 599.166 303.65 617.137C314.725 629.201 333.888 631.013 354.191 632.942C377.348 635.14 403.574 637.624 420.572 657.373C440.674 680.729 435.573 713.23 429.23 741.872C424.431 763.517 420.774 790.161 435.171 804.188C447.789 816.487 477.389 815.447 503.213 792.343C510.462 785.849 517.157 778.601 524.238 770.916C539.139 754.758 554.559 738.046 575.903 728.516C618.658 709.421 665.995 726.804 704.018 740.781C742.51 754.909 782.346 765.547 812.801 747.812C818.439 744.523 825.688 746.419 828.977 752.073C832.265 757.711 830.353 764.959 824.715 768.248C785.685 790.984 737.678 778.349 695.862 762.979C661.85 750.496 619.514 734.942 585.552 750.11C568.654 757.661 555.516 771.889 541.622 786.957C534.474 794.692 527.091 802.712 518.986 809.961C505.227 822.277 487.725 831.22 470.945 834.492C466.113 835.432 461.414 835.901 456.867 835.901C441.883 835.901 428.643 830.851 418.659 821.136C395.889 798.954 400 764.389 406.125 736.737C411.461 712.643 415.605 687.861 402.635 672.793C391.862 660.259 372.482 658.43 351.96 656.483C329.223 654.336 303.432 651.886 286.216 633.127C257.69 602.069 276.752 552.37 283.917 533.661C284.706 531.614 285.998 529.936 287.592 528.661H302.358Z" fill="black"/>
<path d="M170.485 788.534C177.013 788.534 182.315 793.836 182.315 800.363C182.315 806.89 177.013 812.192 170.485 812.192C163.958 812.192 158.656 806.89 158.656 800.363C158.656 793.836 163.958 788.534 170.485 788.534Z" fill="black"/>
<path d="M1036.48 528.627C1036.16 532.654 1036.09 536.715 1036.33 540.775C1038.09 570.189 1054.83 597.958 1080.04 613.244C1082.6 614.788 1085.31 616.281 1088.17 617.875C1100.96 624.956 1115.46 632.959 1121.7 649C1128.21 665.712 1122.22 681.769 1116.95 695.931C1114.87 701.518 1112.91 706.787 1111.75 711.82C1107.2 731.619 1116.3 753.986 1133.36 764.993C1150.43 776 1174.56 775.06 1190.72 762.762C1199.12 756.369 1205.63 747.275 1212.53 737.644C1216.1 732.643 1219.81 727.475 1223.91 722.525C1241.44 701.334 1262.89 691.669 1282.74 696.015C1307.99 701.518 1320 725.999 1329.65 745.664L1330.71 747.812C1338.4 763.399 1351.22 779.121 1364.19 776.521C1379.27 773.5 1383.75 748.265 1384.98 737.56C1387.29 717.274 1390.82 686.618 1415.62 674.252C1423.24 670.454 1431.44 669.08 1440 670.052V694.107C1433.24 692.73 1428.62 694.148 1426.12 695.394C1413.84 701.535 1410.75 720.093 1408.43 740.228C1404.52 774.222 1390.46 795.347 1368.8 799.692C1366.28 800.196 1363.77 800.447 1361.27 800.447C1341.67 800.447 1322.71 785.212 1309.43 758.248L1308.36 756.083C1300.17 739.422 1291.71 722.19 1277.64 719.119C1261.71 715.646 1246.41 732.375 1242.1 737.593C1238.54 741.888 1235.23 746.52 1231.73 751.402C1224.11 762.023 1216.24 773.013 1205.01 781.57C1180.82 799.994 1146.05 801.353 1120.49 784.859C1094.94 768.366 1081.83 736.15 1088.64 706.502C1090.15 699.958 1092.49 693.716 1094.74 687.659C1099.1 675.964 1102.86 665.88 1099.62 657.574C1096.48 649.52 1086.88 644.201 1076.7 638.563C1073.76 636.936 1070.71 635.258 1067.75 633.463C1036.01 614.217 1014.91 579.249 1012.7 542.185C1012.43 537.654 1012.45 533.124 1012.73 528.627H1036.48Z" fill="black"/>
<path d="M490.661 655.812C497.172 655.141 502.978 659.889 503.633 666.383C505.781 687.608 508.213 711.636 502.793 734.841C496.316 762.509 479.067 783.903 456.666 792.041C455.324 792.528 453.964 792.763 452.622 792.763C447.789 792.763 443.242 789.775 441.497 784.977C439.266 778.852 442.437 772.057 448.578 769.825L448.595 769.809C466.096 763.449 476.164 744.791 479.755 729.455C484.285 710.109 482.154 689.102 480.09 668.782C479.419 662.272 484.168 656.467 490.661 655.812Z" fill="black"/>
<path d="M348.905 712.056C355.433 712.056 360.735 717.358 360.735 723.885C360.735 730.412 355.433 735.714 348.905 735.714C342.378 735.714 337.076 730.412 337.076 723.885C337.076 717.358 342.378 712.056 348.905 712.056Z" fill="black"/>
<path d="M195.907 528.645C171.526 548.36 154.78 568.595 144.812 590.357C132.177 617.976 131.64 648.178 143.369 671.148C155.803 695.478 184.262 710.411 208.156 705.143C220.489 702.424 231.783 693.448 238.344 681.132C244.015 670.477 245.106 658.883 241.33 649.285C237.169 638.698 227.705 630.878 217.771 629.821C208.257 628.798 198.004 635.224 195.84 643.563C194.833 647.439 195.907 652.205 198.643 656.014C200.992 659.269 204.163 661.282 207.317 661.5C213.828 661.953 218.744 667.625 218.274 674.135C217.821 680.645 212.15 685.545 205.64 685.092C195.438 684.37 185.89 678.799 179.43 669.806C172.6 660.292 170.167 648.262 172.936 637.607C178.087 617.775 198.877 604.032 220.271 606.28C239.031 608.277 255.946 621.751 263.362 640.61C269.672 656.651 268.161 675.477 259.234 692.239C249.469 710.595 232.269 724.036 213.258 728.23C208.341 729.321 203.307 729.841 198.273 729.841V729.858C168.053 729.858 137.211 711.048 122.311 681.903C107.31 652.54 107.679 614.636 123.301 580.508C131.657 562.252 143.923 545.105 160.451 528.645H195.907Z" fill="black"/>
<path d="M1194.12 683.246C1199.63 679.739 1206.94 681.35 1210.47 686.854C1213.97 692.357 1212.36 699.673 1206.86 703.196L1170.93 726.133C1168.95 727.391 1166.75 727.995 1164.57 727.995C1160.66 727.995 1156.85 726.066 1154.59 722.525C1151.08 717.022 1152.69 709.706 1158.2 706.183L1194.12 683.246Z" fill="black"/>
<path d="M1440 629.601C1431 635.454 1420.55 638.484 1410.04 637.69C1401.82 637.07 1394.34 634.251 1387.73 631.768C1380.65 629.1 1374.52 626.801 1369.05 627.438C1358.83 628.63 1351.84 640.912 1351.23 651.617C1350.44 665.493 1356.84 680.276 1362.49 693.313C1365.09 699.304 1362.32 706.266 1356.33 708.867C1354.81 709.522 1353.21 709.841 1351.63 709.841C1347.07 709.841 1342.71 707.173 1340.78 702.71H1340.75C1334.39 688.028 1326.46 669.739 1327.59 650.259C1328.75 629.856 1342.71 606.684 1366.28 603.932C1377.46 602.64 1387.33 606.331 1396.03 609.603C1401.66 611.717 1406.96 613.714 1411.81 614.083C1424.02 615.022 1435.26 605.007 1440 594.123V629.601Z" fill="black"/>
<path d="M594.395 528.645C594.294 531.447 593.22 534.215 591.14 536.396C569.661 558.847 557.748 589.552 558.419 620.61C558.688 633.127 561.137 642.339 565.919 648.799C570.08 654.437 578.269 658.883 584.746 656.567C591.206 654.252 595.77 646.013 600.586 637.305C607.063 625.593 614.413 612.338 629.515 607.153C646.58 601.314 663.846 609.939 674.316 619.973C680.357 625.761 685.039 632.221 689.553 638.479C692.288 642.255 694.872 645.829 697.641 649.101C720.142 675.712 761.051 684.923 792.799 670.544C798.739 667.843 805.754 670.477 808.455 676.434C811.157 682.373 808.522 689.387 802.565 692.089C789.528 697.995 775.264 700.83 760.968 700.83C730.311 700.83 699.403 687.826 679.569 664.369C676.213 660.409 673.243 656.299 670.374 652.322C666.297 646.685 662.454 641.349 657.957 637.054C652.353 631.701 643.761 627.288 637.2 629.536C630.723 631.768 626.36 639.637 621.31 648.765C614.883 660.376 607.6 673.531 592.733 678.85C576.91 684.521 558.049 677.944 546.907 662.876C539.122 652.356 535.161 638.697 534.775 621.13C534.037 587.656 545.532 554.568 566.523 528.645H594.395Z" fill="black"/>
<path d="M1221.56 531.53C1223.45 536.648 1225.42 541.95 1226.96 547.521C1233.35 570.508 1231.73 595.257 1222.4 617.221C1214.91 634.822 1198.89 653.866 1176.39 654.521H1175.28C1158.47 654.52 1141.87 643.463 1132.74 626.08L1132.76 626.097C1125.17 611.65 1123.4 595.693 1121.82 581.599C1121.08 575.105 1125.76 569.25 1132.25 568.528C1138.75 567.807 1144.61 572.471 1145.33 578.965C1146.74 591.566 1148.18 604.586 1153.7 615.09C1157.91 623.144 1166.3 631.148 1175.7 630.862C1187.06 630.527 1196.22 618.311 1200.63 607.941C1207.88 590.911 1209.14 571.699 1204.17 553.847C1202.9 549.233 1201.19 544.618 1199.38 539.735C1198.03 536.111 1196.67 532.436 1195.45 528.661H1220.5C1220.85 529.618 1221.21 530.574 1221.56 531.53Z" fill="black"/>
<path d="M1255.52 628.06C1262.05 628.06 1267.35 633.356 1267.35 639.889C1267.35 646.422 1262.05 651.718 1255.52 651.718C1248.99 651.718 1243.69 646.422 1243.69 639.889C1243.69 633.356 1248.99 628.06 1255.52 628.06Z" fill="black"/>
<path d="M482.977 598.713C489.504 598.713 494.807 604.016 494.807 610.543C494.806 617.07 489.504 622.372 482.977 622.372C476.449 622.372 471.147 617.07 471.146 610.543C471.146 604.016 476.449 598.713 482.977 598.713Z" fill="black"/>
<path d="M746.923 592.556C753.45 592.556 758.753 597.858 758.753 604.385C758.753 610.912 753.45 616.214 746.923 616.214C740.396 616.214 735.094 610.912 735.094 604.385C735.094 597.858 740.396 592.556 746.923 592.556Z" fill="black"/>
<path d="M802.716 558.092C807.196 553.327 814.68 553.092 819.445 557.555C833.876 571.095 854.633 580.408 879.483 584.502C902.69 588.328 927.122 587.505 950.765 586.717C957.275 586.482 962.762 591.616 962.98 598.143C963.199 604.669 958.081 610.14 951.554 610.358C941.419 610.694 931.116 611.046 920.763 611.046C905.812 611.046 890.71 610.324 875.642 607.841V607.857C846.143 602.992 821.123 591.582 803.253 574.82C798.488 570.34 798.253 562.857 802.716 558.092Z" fill="black"/>
<path d="M359.292 528.627C359.946 529.516 360.484 530.49 360.87 531.563C370.099 556.967 395.369 576.314 422.301 578.596C449.216 580.878 477.389 566.078 490.779 542.588C494.018 536.917 501.249 534.937 506.921 538.175C512.592 541.413 514.573 548.645 511.334 554.316C494.521 583.797 461.716 602.505 427.955 602.505C425.405 602.505 422.838 602.405 420.287 602.187V602.17C383.908 599.083 351.087 573.964 338.619 539.651C337.226 535.792 337.931 531.698 340.18 528.627H359.292Z" fill="black"/>
<path d="M1311.23 538.359C1314.35 532.621 1321.52 530.473 1327.27 533.577C1333.03 536.698 1335.16 543.863 1332.05 549.618L1311.78 587.119C1309.63 591.079 1305.57 593.327 1301.36 593.327C1299.45 593.327 1297.54 592.874 1295.74 591.901C1289.99 588.78 1287.85 581.616 1290.96 575.86L1311.23 538.359Z" fill="black"/>
<path d="M676.18 528.645C677.421 531.782 677.32 535.423 675.592 538.611L655.322 576.112C653.174 580.072 649.113 582.32 644.901 582.32C642.989 582.32 641.076 581.867 639.28 580.894C633.525 577.773 631.394 570.609 634.498 564.854L654.08 528.645H676.18Z" fill="black"/>
<path d="M17.3867 573.512H17.3701C17.3724 573.512 17.3747 573.511 17.377 573.511C17.3801 573.511 17.3835 573.512 17.3867 573.512Z" fill="black"/>
<path d="M63.4805 528.645C55.2416 549.903 40.1401 565.978 21.4141 572.79C20.0741 573.276 18.717 573.51 17.377 573.511C12.5479 573.507 8.00569 570.521 6.26172 565.709C4.03 559.585 7.20135 552.789 13.3428 550.558C24.0482 546.665 31.9518 538.158 37.3213 528.645H63.4805Z" fill="black"/>
<path d="M1440 554.604C1439.1 551.634 1438.11 548.846 1437.09 546.312C1435.24 541.653 1436.55 536.523 1440 533.294V554.604Z" fill="black"/>
</g>
</svg>
