<svg width="1440" height="502" viewBox="0 0 1440 502" fill="none" xmlns="http://www.w3.org/2000/svg">
<path d="M0 464.176C11.0342 468.98 20.2848 477.919 24.9248 489.142C26.6284 493.262 27.6742 497.602 28.0986 502H8.72656C8.41045 500.109 7.89337 498.259 7.16406 496.493C5.60702 492.736 3.09881 489.382 0 486.668V464.176Z" fill="white"/>
<path d="M109.8 473.558C155.538 462.15 206.062 473.295 243.298 502H206.707C178.225 488.48 145.113 484.563 114.45 492.215C108.933 493.591 99.3131 496.543 90.2188 502H60.9912C69.3868 491.524 84.1117 479.96 109.8 473.558Z" fill="white"/>
<path d="M449.848 465.023C468.273 462.424 487.659 466.808 504.465 477.38C514.833 483.902 523.502 492.334 529.944 502H505.015C491.203 488.757 471.488 481.377 452.547 484.051C439.367 485.911 426.285 492.144 414.517 502H387.352C404.977 481.342 427.128 468.236 449.848 465.023Z" fill="white"/>
<path d="M148.144 69.0527L157.315 76.7891C158.1 80.7865 156.291 85.0044 152.528 87.0752C133.108 97.7904 110.93 112.62 111.76 132.425C112.318 145.721 123.271 156.886 134.871 168.723C148.103 182.221 163.091 197.505 163.302 218.679C163.55 243.719 143.352 261.235 124.405 275.703C110.083 286.634 93.8496 301.269 95.4424 317.525C96.8361 331.776 115.767 346.639 143.913 345.817C151.818 345.582 159.774 344.587 168.199 343.523C185.921 341.293 204.257 338.992 222.508 344.255C259.069 354.795 279.363 390.394 295.657 418.998C312.164 447.942 331.334 475.422 359.544 480.362C364.769 481.274 368.278 486.249 367.358 491.484C366.447 496.71 361.461 500.21 356.235 499.299C320.08 492.972 296.881 459.971 278.961 428.515C264.375 402.939 246.229 371.097 217.186 362.725C202.734 358.562 187.118 360.516 170.593 362.596C162.1 363.655 153.311 364.769 144.479 365.025C129.48 365.466 113.922 361.851 101.785 355.092C98.2914 353.144 95.1271 350.974 92.3027 348.592C82.9954 340.741 77.4178 330.667 76.3066 319.401C73.7858 293.693 94.4503 274.376 112.743 260.408C128.682 248.237 144.243 235.014 144.081 218.858C143.957 205.429 132.877 194.138 121.15 182.177C108.153 168.93 93.4163 153.895 92.5518 133.223C91.1067 98.9845 128.988 78.0996 143.241 70.2324C144.804 69.3742 146.485 69.0097 148.144 69.0527Z" fill="white"/>
<path d="M452.688 357.229C457.967 356.617 462.739 360.392 463.36 365.661C465.229 381.633 473.242 398.293 486.532 413.856C498.942 428.392 514.549 440.682 529.647 452.58C533.814 455.845 534.532 461.909 531.248 466.078C527.964 470.247 521.919 470.963 517.75 467.679C511.279 462.577 504.694 457.397 498.264 451.973C488.977 444.139 479.975 435.779 471.917 426.342L471.908 426.352C456.135 407.873 446.573 387.678 444.256 367.902C443.643 362.623 447.418 357.851 452.688 357.229Z" fill="white"/>
<path d="M109.902 414.01C127.073 404.037 149.939 402.561 172.666 409.94C192.079 416.237 208.639 427.439 224.662 438.262C229.065 441.226 230.21 447.206 227.246 451.608C224.282 456.011 218.293 457.168 213.899 454.193C198.984 444.109 183.565 433.69 166.738 428.219C149.205 422.527 132.017 423.405 119.576 430.625C115.971 432.721 111.553 432.207 108.541 429.666C107.718 428.971 106.998 428.132 106.421 427.146C103.758 422.562 105.311 416.683 109.902 414.01Z" fill="white"/>
<path d="M71.9365 437.427C75.3565 433.373 81.4281 432.857 85.4824 436.277C89.5367 439.697 90.0518 445.769 86.6318 449.823C83.2118 453.877 77.1403 454.393 73.0859 450.973C69.0318 447.553 68.5166 441.481 71.9365 437.427Z" fill="white"/>
<path d="M338.72 229.789C337.189 231.477 335.071 232.634 332.636 232.898C307.532 235.591 284.043 248.423 268.187 268.066C261.795 275.982 258.49 282.988 258.075 289.506C257.706 295.188 260.463 302.241 265.699 304.196C270.925 306.143 278.077 303.416 285.631 300.53C295.791 296.649 307.301 292.266 319.398 296.958C333.057 302.272 339.263 316.676 340.51 328.395C341.229 335.155 340.752 341.621 340.276 347.873C339.997 351.651 339.729 355.225 339.734 358.708C339.767 387.028 360.351 414.185 387.605 421.887C392.71 423.321 395.687 428.632 394.244 433.747C392.81 438.852 387.498 441.829 382.383 440.386C371.19 437.223 360.845 431.512 351.965 424.021C332.923 407.959 320.538 383.687 320.509 358.725C320.499 354.507 320.809 350.396 321.11 346.423C321.532 340.785 321.94 335.457 321.397 330.433C320.721 324.171 317.697 316.929 312.443 314.888C307.251 312.88 300.418 315.483 292.498 318.507C282.422 322.352 271.006 326.707 258.984 322.222C246.185 317.454 237.916 303.487 238.891 288.29C239.567 277.676 244.263 267.117 253.229 256.002C270.309 234.822 294.786 220.291 321.408 215.187L338.72 229.789Z" fill="white"/>
<path d="M1.84863 317.477C7.52594 318.359 13.3706 319.276 19.2793 321.174C43.4844 328.979 61.4399 353.098 61.9531 378.522C62.3567 398.325 51.0639 419.41 33.8555 430.992C23.1591 438.182 11.4569 440.965 0 439.201V419.552C9.52272 422.145 17.7002 418.671 23.123 415.019C34.95 407.067 43.0068 392.207 42.7373 378.886C42.3896 361.682 29.7851 344.734 13.4004 339.458C9.25779 338.119 4.75565 337.371 0 336.629V317.183C0.611372 317.28 1.22746 317.379 1.84863 317.477Z" fill="white"/>
<path d="M2.07617 370.542C7.02799 372.454 9.50342 378.021 7.5918 382.973L7.60938 382.951C6.31186 386.312 3.33007 388.531 0 389.013V369.745C0.692684 370.012 1.38557 370.276 2.07617 370.542Z" fill="white"/>
<path d="M386.428 350.556C389.848 346.501 395.919 345.986 399.974 349.405C404.028 352.825 404.544 358.897 401.124 362.951C397.704 367.006 391.632 367.522 387.577 364.102C383.523 360.682 383.008 354.61 386.428 350.556Z" fill="white"/>
<path d="M194.293 256.95C197.287 252.555 203.279 251.436 207.655 254.432C212.051 257.426 213.169 263.418 210.173 267.794C200.385 282.104 189.307 298.304 173.781 309.879C155.261 323.672 133.337 327.923 115.159 321.241C114.07 320.84 113.103 320.274 112.27 319.57C109.268 317.038 108.008 312.8 109.438 308.905C111.261 303.932 116.792 301.373 121.775 303.204L121.795 303.202C135.998 308.422 152.028 302.107 162.294 294.462C175.245 284.818 184.928 270.653 194.293 256.95Z" fill="white"/>
<path d="M389.52 272.64C388.647 275.239 386.677 277.449 383.933 278.523L351.692 291.197C348.284 292.532 344.584 291.8 341.968 289.594C340.78 288.591 339.828 287.308 339.223 285.763C337.283 280.809 339.714 275.241 344.657 273.293L375.793 261.062L389.52 272.64Z" fill="white"/>
<path d="M0 180.15C8.07531 181.632 15.8355 184.46 22.2256 188.532C33.6524 195.816 40.1938 206.65 40.6436 219.017C41.6206 246.524 18.6815 262.224 0 273.645V250.765C13.3934 241.561 21.9168 232.527 21.4551 219.688C21.224 213.659 18.0183 208.619 11.9014 204.726C8.38028 202.481 4.27691 200.852 0 199.781V180.15Z" fill="white"/>
<path d="M76.5889 216.246C80.0089 212.192 86.0804 211.677 90.1348 215.097C94.1891 218.517 94.7049 224.588 91.2852 228.643C87.8652 232.697 81.7927 233.212 77.7383 229.792C73.6842 226.372 73.169 220.3 76.5889 216.246Z" fill="white"/>
<path d="M219.254 216.087C222.674 212.033 228.745 211.518 232.8 214.938C236.854 218.358 237.369 224.429 233.949 228.483C230.529 232.538 224.458 233.053 220.403 229.633C216.349 226.213 215.834 220.141 219.254 216.087Z" fill="white"/>
<path d="M192.697 106.599C192.638 107.494 192.462 108.38 192.139 109.249C184.561 129.864 190.12 155.121 205.652 170.649C221.175 186.169 246.429 191.738 267.055 184.162C272.038 182.336 277.566 184.895 279.393 189.878C281.219 194.861 278.66 200.391 273.677 202.217C247.786 211.72 217.607 206.154 196.637 188.465C195.053 187.129 193.511 185.721 192.041 184.249L192.05 184.238C171.071 163.26 163.845 130.461 174.08 102.614C175.237 99.4875 177.821 97.3142 180.826 96.585L192.697 106.599Z" fill="white"/>
<path d="M19.8418 76.6523C33.4333 67.0321 53.5476 69.3892 65.6582 81.9951C76.2643 93.0644 79.7104 110.296 74.4355 125.896C69.9496 139.166 59.1471 150.07 44.8193 155.805C30.0894 161.708 13.5595 161.481 0 155.339V132.833C1.97552 134.459 4.09042 135.88 6.33203 137.058C15.4169 141.831 27.1348 142.172 37.6631 137.959C46.7685 134.312 53.5212 127.682 56.2051 119.742C59.1678 110.985 57.3868 101.169 51.7705 95.3076C46.3972 89.687 36.6612 88.3076 30.9473 92.3535C28.2911 94.2337 26.4619 97.7567 26.165 101.556C25.9187 104.808 26.8328 107.721 28.6777 109.509C32.4842 113.201 32.567 119.3 28.8643 123.098C25.1717 126.904 19.081 126.977 15.2744 123.284C9.31561 117.491 6.30441 109.028 7.00391 100.057C7.74679 90.5688 12.5393 81.8201 19.8418 76.6523Z" fill="white"/>
<path d="M91.2031 21.0039C65.7291 20.4762 44.7246 24.2716 27.1309 32.5674C16.5003 37.5854 7.26837 44.407 0 52.3799V26.5703C5.78975 22.2214 12.1319 18.3858 18.9297 15.1787C33.6855 8.21719 50.2898 3.99251 69.1807 2.42773L91.2031 21.0039Z" fill="white"/>
</svg>
