<?xml version="1.0" encoding="UTF-8"?>
<svg id="svg537" xmlns="http://www.w3.org/2000/svg" viewBox="0 0 141.73 141.73">
  <defs>
    <style>
      .cls-1 {
        fill: #dbefe1;
      }
    </style>
  </defs>
  <g id="Layer_2" data-name="Layer 2">
    <g id="Layer_1-2" data-name="Layer 1-2">
      <path class="cls-1" d="M113.03,107.39h-2.02c.31-1.27.59-2.52.83-3.69,1.37-6.85,2.44-16.41-3.99-20.4-6.82-4.25-14.62-3.52-21.24-2.54.46-6.17.35-12.38-.33-18.53,6.44,1.11,16.18,1.6,28.72-1.27,3.38-.87,5.41-4.3,4.55-7.68-.83-3.26-4.07-5.29-7.37-4.62-19.56,4.49-30.41-.73-30.48-.76-3.07-1.64-6.9-.48-8.54,2.59-.67,1.26-.9,2.71-.64,4.12,1.01,5.54,3.29,23.2.28,31.43-1.2,3.27.49,6.89,3.75,8.08.85.31,1.76.43,2.66.36,2.46-.19,4.9-.57,7.26-.94,5.27-.82,10.26-1.6,13.77,0,.3,2.53-.82,10.12-3.59,18.15-1.13,3.3.63,6.89,3.93,8.02.66.22,1.35.34,2.04.34h10.42c3.48.14,6.42-2.57,6.56-6.05s-2.57-6.42-6.05-6.56c-.17,0-.34,0-.51,0v-.03ZM113.03,116.97h-10.45c-1.81,0-3.27-1.47-3.27-3.28,0-.36.06-.72.18-1.06,2.54-7.39,4.59-17.4,3.48-20.65l-.18-.56-.52-.28c-2.22-1.13-4.7-1.67-7.19-1.58-3.06.11-6.1.45-9.1,1.01-2.3.35-4.67.73-7.02.91-1.8.16-3.39-1.16-3.55-2.96-.05-.5.02-1,.2-1.46,3.26-8.9,1.01-26.86-.14-33.03-.32-1.78.86-3.49,2.64-3.81.73-.13,1.49-.01,2.15.34.12.06,11.63,5.84,32.58,1.01.84-.2,1.73-.05,2.46.4,1.53.96,1.99,2.99,1.03,4.52-.46.73-1.2,1.25-2.04,1.45-13.41,3.03-23.42,2.17-29.45.87l-2.07-.45.24,2.1c.7,5.93,1.3,14.52.34,21.91l-.25,2.02,2.02-.31c6.83-1.01,14.57-2.27,21.12,1.81,4.81,3.03,3.79,11.28,2.6,17.2-.33,1.7-.76,3.52-1.26,5.41l-.51,1.91h5.97c1.81-.1,3.35,1.28,3.45,3.09.1,1.81-1.28,3.35-3.09,3.45-.12,0-.24,0-.36,0h0Z"/>
      <path class="cls-1" d="M80.66,44.76c6.37,0,11.54-5.15,11.54-11.52,0-6.37-5.15-11.54-11.52-11.54-6.37,0-11.54,5.15-11.54,11.52,0,0,0,0,0,.01,0,6.36,5.16,11.53,11.52,11.53ZM80.66,24.74c4.69,0,8.5,3.79,8.51,8.49,0,4.69-3.79,8.5-8.49,8.51-4.69,0-8.5-3.79-8.51-8.49,0,0,0-.01,0-.02.01-4.68,3.8-8.48,8.49-8.49Z"/>
      <path class="cls-1" d="M70.44,69.71c-.07-.84-.19-1.67-.36-2.49-.1-.52-.22-1.04-.36-1.55-.11-.42-.23-.84-.38-1.25s-.34-1.01-.56-1.56c-.61-1.52-1.37-2.97-2.28-4.33h0c-.3-.46-.63-.9-.96-1.34-.64-.83-1.33-1.62-2.07-2.36-7.89-7.89-20.14-9.39-29.7-3.63h0l-.7.45c-.23.14-.46.3-.69.47-1.18.8-2.29,1.72-3.31,2.72-.45.44-.87.91-1.27,1.4-.37.41-.72.85-1.01,1.29s-.52.72-.76,1.08-.57.89-.82,1.35c-.65,1.1-1.19,2.26-1.64,3.46-.18.47-.34.95-.5,1.44s-.23.79-.33,1.19-.23,1.01-.32,1.48c-.25,1.25-.39,2.52-.42,3.79v1.55c0,.28,0,.86.08,1.28s.1,1.01.18,1.59c.23,1.35.57,2.67,1.01,3.97.18.56.38,1.1.62,1.65h0c.19.47.39.91.63,1.36h0c.26.59.56,1.16.88,1.71,1.03,1.73,2.26,3.33,3.68,4.76.34.34.68.68,1.01,1.01.58.52,1.17,1.01,1.78,1.44,6.81,4.97,15.7,6.07,23.51,2.9,1.05-.41,2.06-.9,3.03-1.47.67-.38,1.32-.79,1.94-1.24,1.11-.79,2.16-1.67,3.12-2.64.51-.51,1.01-1.01,1.45-1.58s.81-1.01,1.18-1.53.57-.82.82-1.24.62-1.01.89-1.53c.44-.83.82-1.68,1.15-2.56.2-.5.37-1.01.53-1.51s.25-.82.35-1.23.23-1.01.32-1.52c.16-.83.27-1.67.32-2.51,0-.51.08-1.01.08-1.52v-1.22c-.02-.52-.02-.98-.12-1.53ZM31.25,56.98c1.51-1.51,3.25-2.79,5.14-3.79l1.79-.83c7.77-3.18,16.69-1.5,22.77,4.29h0c.12.1.24.22.35.33.35.35.69.71,1.01,1.08,1.2,1.37,2.22,2.89,3.03,4.52-.9-.06-1.79-.14-2.66-.22-1.79-.16-3.51-.33-5.18-.54s-3.31-.4-4.92-.63-3.19-.46-4.77-.72-3.16-.53-4.74-.83-3.21-.61-4.86-1.01-3.34-.72-5.06-1.13l-2.01-.4.1-.12ZM28.21,60.76c1.27.33,2.56.65,3.88,1.01,1.78.42,3.5.8,5.18,1.15,1.68.35,3.33.69,4.96,1.01s3.23.59,4.85.85,3.23.51,4.87.73c1.29.18,2.59.35,3.91.52l1.09.13c1.75.2,3.53.38,5.29.55,1.54.14,3.09.26,4.64.37.21.86.36,1.73.46,2.61-1.71-.06-3.44-.15-5.14-.26s-3.64-.25-5.37-.4-3.43-.31-5.06-.5-3.31-.39-4.95-.62-3.28-.46-4.94-.72-3.33-.55-5.06-.85-3.47-.66-5.28-1.01-3.35-.71-5.06-1.1c.47-1.21,1.06-2.37,1.76-3.47h-.04ZM54.04,91.79c-1.31.51-2.66.89-4.05,1.12h-.05c-3.23.58-6.55.4-9.69-.53h0c-1.31-.39-2.57-.91-3.78-1.54h0c-1.91-.99-3.65-2.27-5.17-3.79-.63-.64-1.21-1.31-1.75-2.02l2.49.39c1.23.17,2.45.32,3.65.48l1.45.17c1.67.18,3.31.35,4.95.51s3.26.29,4.9.41,3.28.21,4.95.3,3.38.16,5.13.21l3.68.09c-1.95,1.81-4.22,3.23-6.7,4.19ZM64.25,83.33h-1.8c-1.83,0-3.58-.05-5.3-.1s-3.39-.12-5.06-.2-3.26-.19-4.87-.3-3.21-.25-4.8-.4-3.22-.31-4.86-.51-3.3-.39-5-.63-3.4-.5-5.21-.82l-.66-.11c-.54-1.25-.95-2.56-1.21-3.89l2.69.52c1.77.32,3.49.63,5.16.89s3.31.52,4.92.74c1.44.2,2.85.38,4.27.56l.51.06c1.58.18,3.15.35,4.72.51s3.18.29,4.79.41,3.27.23,4.96.33,3.43.16,5.22.22c.95,0,1.93.06,2.93.07-.39.92-.87,1.81-1.41,2.66ZM67.06,76.46c-1.4,0-2.8,0-4.19-.09-1.77-.06-3.47-.13-5.13-.22s-3.28-.19-4.87-.32-3.16-.25-4.7-.4-3.1-.31-4.63-.5h-.24c-1.48-.18-2.95-.36-4.45-.58s-3.18-.46-4.82-.73-3.32-.55-5.06-.87c-1.28-.24-2.59-.5-3.93-.77,0-1.26.11-2.51.34-3.74,1.78.41,3.53.8,5.32,1.17s3.64.73,5.39,1.01,3.45.61,5.14.87,3.36.51,5.06.74l2.95.37,2.09.28c1.69.19,3.42.35,5.19.52s3.59.29,5.47.41,3.65.21,5.46.27c-.07.86-.2,1.72-.39,2.57Z"/>
    </g>
  </g>
</svg>