<?xml version="1.0" encoding="UTF-8"?>
<svg id="svg537" xmlns="http://www.w3.org/2000/svg" viewBox="0 0 141.73 141.73">
  <defs>
    <style>
      .cls-1 {
        fill: #dbedf4;
      }
    </style>
  </defs>
  <g id="Layer_2" data-name="Layer 2">
    <g id="Layer_1-2" data-name="Layer 1-2">
      <path class="cls-1" d="M95.2,62.53c0,6.2,5.04,11.23,11.24,11.22,6.2,0,11.23-5.04,11.22-11.24s-5.04-11.23-11.24-11.22c-6.2,0-11.23,5.04-11.22,11.24h0ZM114.72,62.53c0,4.58-3.72,8.28-8.29,8.27-4.58,0-8.28-3.72-8.27-8.29,0-4.57,3.71-8.27,8.27-8.27,4.58,0,8.29,3.71,8.29,8.29h0Z"/>
      <path class="cls-1" d="M119.33,91.05c-7.54-8.78-15.72-11.96-27.44-10.64-5.64.64-12.01,3.93-18.74,7.53-6.94,3.65-14.81,7.74-20.22,7.74-9.77,0-17.59-5.21-20.72-10.04-1.85-2.84-5.64-3.65-8.49-1.8-2.84,1.85-3.65,5.64-1.8,8.49,5.04,7.79,16.59,15.64,31.01,15.64,8.44,0,17.31-4.67,25.91-9.19,5.19-2.72,11.07-5.81,14.43-6.19,7.56-.85,11.94.84,16.76,6.45,2.2,2.57,6.07,2.86,8.64.66,2.57-2.2,2.86-6.07.66-8.64ZM116.74,97.45c-1.33,1.15-3.33,1-4.48-.33,0,0,0,0,0,0-5.42-6.33-10.81-8.41-19.32-7.46-3.93.44-9.83,3.53-15.48,6.52-8.27,4.34-16.82,8.84-24.57,8.84-13.3,0-23.9-7.18-28.51-14.25-.96-1.48-.53-3.45.94-4.4.51-.33,1.11-.51,1.72-.51.22,0,.45.02.67.07.81.18,1.52.68,1.97,1.39,3.6,5.42,12.37,11.32,23.24,11.32,6.14,0,14.35-4.31,21.62-8.12,6.49-3.41,12.62-6.62,17.69-7.2,10.6-1.2,18.04,1.69,24.86,9.63,1.15,1.32,1.01,3.33-.32,4.48-.01.01-.03.02-.04.03Z"/>
      <path class="cls-1" d="M55.25,91.75c1.1,0,2.17-.3,3.12-.86.18-.1,17.39-9.96,30.04-13.53,2.31-.55,4.14-2.32,4.78-4.61.57-2.09,0-4.33-1.5-5.9-2.59-2.61-4.9-9.86-2.69-14.7,2.28-5.06,9.57-6.12,15.3-6.12,3.38-.14,6.02-2.99,5.88-6.37-.13-3.19-2.69-5.75-5.88-5.88-16.92,0-23.74,7.26-26.47,13.35-2.73,6.09-2.53,13.56.38,20.64-9.02,3.47-17.75,7.67-26.09,12.56-2.9,1.72-3.86,5.48-2.13,8.38,0,0,0,0,0,.01,1.1,1.87,3.1,3.03,5.27,3.04ZM52.16,84.87c.2-.82.72-1.53,1.45-1.97.57-.33,14.1-8.37,27.05-12.88l1.55-.54-.71-1.48c-3.16-6.66-3.54-13.99-.98-19.65,2.31-5.31,8.4-11.62,23.75-11.62,1.76.1,3.1,1.6,3,3.36-.09,1.62-1.38,2.91-3,3-9.46,0-15.67,2.72-17.98,7.86-2.59,5.76-.35,14.4,3.3,17.99.74.83,1.01,1.97.73,3.04-.36,1.28-1.42,2.25-2.72,2.51-13.03,3.68-30.57,13.76-30.74,13.84-.49.29-1.05.45-1.62.45-1.12,0-2.16-.59-2.74-1.55-.43-.73-.55-1.59-.34-2.41v.07Z"/>
    </g>
  </g>
</svg>