<?xml version="1.0" encoding="UTF-8"?>
<svg id="svg537" xmlns="http://www.w3.org/2000/svg" viewBox="0 0 141.73 141.73">
  <defs>
    <style>
      .cls-1 {
        fill: #fdf0db;
      }
    </style>
  </defs>
  <g id="Layer_2" data-name="Layer 2">
    <g id="Layer_1-2" data-name="Layer 1-2">
      <path class="cls-1" d="M105.43,53.34c6.17,0,11.18-5,11.18-11.18,0-6.17-5-11.18-11.18-11.18-6.17,0-11.18,5-11.18,11.18,0,2.97,1.18,5.81,3.28,7.91,2.09,2.1,4.94,3.27,7.9,3.27ZM99.65,36.38c3.21-3.17,8.39-3.14,11.57.07,3.17,3.21,3.14,8.39-.07,11.57-1.52,1.5-3.58,2.35-5.72,2.36-4.51.03-8.2-3.6-8.23-8.11-.02-2.21.87-4.34,2.45-5.89Z"/>
      <path class="cls-1" d="M122.31,59.78c-.23-3.44-3.21-6.04-6.65-5.8-1.65.11-3.18.87-4.27,2.11-3.2,3.66-7.42,6-8.3,5.91-2.21-1-5.51-7.41-7.69-11.62-3.72-7.18-7.56-14.61-13.74-18.06-2.68-1.5-10.41-3.79-24.21,7.41-2.59,2.27-2.85,6.21-.58,8.81,2.15,2.45,5.82,2.84,8.43.88,5-4,9.4-5.82,10.65-6,1.73,1.45,3.19,3.2,4.3,5.17-1.32.15-2.64.32-3.92.5-2.66.38-5.09.82-7.44,1.34-2.59.55-5.14,1.26-7.64,2.13-2.36.8-4.63,1.86-6.76,3.16-1.07.58-2,1.4-2.71,2.39-.52.8-.86,1.71-1,2.66-.05.58-.05,1.16,0,1.74v.54c.02,1.25-.03,2.49-.15,3.73-.25,2.42-.78,4.8-1.58,7.1-.83,2.34-1.92,4.58-3.26,6.67-1.45,2.24-3.13,4.33-5,6.24-.89.92-1.86,1.83-2.88,2.72-4.39,3.81-9.33,6.92-14.66,9.23-3.18,1.32-4.69,4.98-3.37,8.16.95,2.28,3.15,3.79,5.63,3.84.77,0,1.53-.14,2.24-.42,6.58-2.77,12.69-6.55,18.1-11.21,2.42-2.08,4.66-4.36,6.7-6.81l23-.2c2.7-.02,5.07-1.77,5.89-4.34.19-.59,4.21-13.89-10.09-25.11,5.05-1.07,10.17-1.77,15.32-2.1,2.73,5,6.09,10.37,11.11,12.73,1.63.76,3.4,1.15,5.2,1.14,3.57,0,7.39-1.45,11.35-4.31,2.34-1.71,4.5-3.65,6.44-5.81,1.1-1.24,1.65-2.87,1.54-4.52ZM118.52,62.33c-1.8,1.97-3.79,3.76-5.94,5.35-5.08,3.66-9.78,4.65-13.52,2.89-4-1.9-7-6.28-10.2-12.28l-.45-.84-1,.05c-6.75.35-13.45,1.36-20,3l-3.16.9,2.75,1.82c15.6,10.33,11.75,23.1,11.58,23.63-.42,1.31-1.62,2.22-3,2.25l-24.42.21-.45.55c-2.05,2.53-4.31,4.87-6.77,7-5.17,4.45-11,8.07-17.29,10.71-.37.15-.76.22-1.16.22-1.78.01-3.24-1.42-3.25-3.21-.01-1.35.82-2.57,2.08-3.04,5.66-2.43,10.91-5.73,15.55-9.77,1.08-.94,2.1-1.92,3.05-2.89,2-2.05,3.78-4.31,5.33-6.72,1.46-2.29,2.65-4.73,3.56-7.29.88-2.52,1.46-5.14,1.73-7.8.14-1.36.21-2.72.2-4.09v-.64c-.03-.39-.03-.79,0-1.18.07-.5.24-.98.51-1.4.49-.62,1.1-1.13,1.8-1.5,1.96-1.18,4.03-2.14,6.2-2.87,2.37-.82,4.79-1.48,7.25-2,2.28-.51,4.63-.93,7.21-1.3,2-.28,4-.52,6.12-.71l2.32-.21-1.15-2c-2.63-4.68-4.75-7.29-6.84-8.52l-.24-.14h-.28c-.14-.01-.29-.01-.43,0-2.55,0-8.1,2.86-12.8,6.65-1.31,1.21-3.35,1.13-4.56-.18-1.21-1.31-1.13-3.35.18-4.56.1-.09.21-.18.32-.26,12.73-10.42,19.18-8.18,20.91-7.18,5.39,3,9,10,12.54,16.83,3.37,6.51,6.18,11.59,9.07,12.95s9.2-3.63,11.84-6.65c1.2-1.32,3.24-1.42,4.56-.23.6.54.97,1.29,1.05,2.1.06.86-.22,1.7-.79,2.35Z"/>
      <path class="cls-1" d="M60.16,66.59l-.3,2.29c-.53,4.08-1.69,8.05-3.44,11.77l-1,2.16,17.37-.16-.26-1.67c-.53-3.43-2.76-8.5-10.4-13.15l-1.97-1.24ZM69.16,79.69l-9.07.07c1.07-2.63,1.87-5.37,2.39-8.16,4.05,2.89,5.88,5.76,6.67,8.09h0Z"/>
    </g>
  </g>
</svg>