<?xml version="1.0" encoding="UTF-8"?>
<svg id="svg537" xmlns="http://www.w3.org/2000/svg" viewBox="0 0 141.73 141.73">
  <defs>
    <style>
      .cls-1 {
        fill: #ebdfec;
      }
    </style>
  </defs>
  <g id="Layer_2" data-name="Layer 2">
    <g id="Layer_1-2" data-name="Layer 1-2">
      <path class="cls-1" d="M113.46,57.74c2.56-2.51,2.6-6.63.09-9.19-2.39-2.44-6.25-2.61-8.85-.4-.09.08-9,7.97-17.24,3.43-10.86-5.98-11.37-21.42-11.37-21.57-.08-3.57-3.01-6.41-6.57-6.39-3.58.04-6.46,2.98-6.42,6.56,0,0,0,0,0,.01,0,.68.31,16.18,10.58,26.95-5.03,2.81-10.88,3.79-16.56,2.77-6.25-1.33-12.15-7.07-15.26-14.77,2.29-1.49,3.6-3.35,3.73-5.34.21-1.76-.31-3.54-1.43-4.92l-6.32-7.68c-2.28-2.77-6.37-3.16-9.14-.88,0,0,0,0-.01,0-2.75,2.26-3.16,6.31-.93,9.09.06.07.95,1.25,1.84,2.32-1.96,1.69-2.67,4.41-1.79,6.85,6.49,19.6,17.95,26.04,26.41,28.01,2.37.55,4.8.82,7.23.81,1.49,0,2.98-.11,4.46-.3,5.94,2.78,14.67,10.86,9.38,34.04-.79,3.5,1.4,6.98,4.9,7.78.47.11.95.16,1.43.16h9.95c3.59-.14,6.38-3.17,6.24-6.76-.14-3.39-2.85-6.1-6.24-6.24h-2.16c2.2-17.64-3.13-28.06-8.74-33.99,1.7-.97,3.33-2.05,4.88-3.25,14.68,4.78,27.78-6.99,27.91-7.11ZM84.29,61.9c-2.14,1.73-4.46,3.21-6.92,4.43-.77.39-1.08,1.33-.69,2.1.08.17.2.32.33.44,5.71,5.21,11.92,15.49,9.06,34.54-.13.85.45,1.65,1.3,1.78.08.01.16.02.25.02h3.99c1.86.1,3.29,1.7,3.18,3.56-.1,1.72-1.47,3.09-3.18,3.18h-9.96c-1.02,0-1.99-.47-2.63-1.27-.64-.8-.87-1.86-.63-2.85,2.08-8.95,4.95-30.54-11.66-37.78-.2-.09-.41-.13-.63-.14h-.22c-1.47.21-2.95.32-4.43.32-2.19,0-4.38-.24-6.52-.73-7.69-1.78-18.12-7.72-24.16-25.93-.54-1.68.27-3.51,1.88-4.24.75-.42,1.02-1.36.6-2.11-.07-.13-.16-.24-.26-.35-.75-.76-2.24-2.68-2.79-3.41-.58-.68-.86-1.57-.77-2.46.16-1.85,1.79-3.22,3.64-3.06.91.08,1.75.53,2.33,1.24l6.32,7.68c.62.77.89,1.76.73,2.74-.07,1.14-1.3,2.44-3.27,3.46-.7.36-1.02,1.18-.75,1.92,3.38,9.44,10.28,16.34,18.02,17.98,6.54,1.41,14.24-.17,20.59-4.17.41-.26.68-.7.73-1.19.04-.48-.14-.95-.5-1.28-10.75-9.89-11.05-25.52-11.06-26.18.08-1.86,1.65-3.31,3.51-3.23,1.72.07,3.11,1.43,3.23,3.15.16,3.25.76,6.47,1.77,9.56,2.19,6.77,6.06,11.85,11.22,14.68,10.19,5.62,20.41-3.46,20.84-3.85,1.38-1.25,3.51-1.15,4.76.22.61.65.93,1.52.89,2.42-.02.89-.4,1.73-1.04,2.34-.13.1-12.3,11.06-25.56,6.18-.54-.21-1.14-.11-1.58.26l.03.03Z"/>
      <path class="cls-1" d="M95.53,118.11h-17.76c-.86,0-1.56.7-1.56,1.56s.7,1.56,1.56,1.56h17.76c.86,0,1.56-.7,1.56-1.56s-.7-1.56-1.56-1.56Z"/>
      <path class="cls-1" d="M47.16,34.9c.58.64,1.57.69,2.21.12.6-.54.69-1.46.2-2.11l-9.77-11.86c-.56-.66-1.54-.75-2.21-.21-.66.56-.75,1.54-.2,2.21l9.77,11.85Z"/>
      <path class="cls-1" d="M93.28,49c6.56,0,11.88-5.31,11.89-11.87,0-6.56-5.31-11.88-11.87-11.89s-11.88,5.31-11.89,11.87c0,.02,0,.03,0,.05.02,6.54,5.33,11.83,11.87,11.84ZM93.28,28.38c4.83,0,8.76,3.91,8.76,8.74s-3.91,8.76-8.74,8.76c-4.83,0-8.74-3.9-8.76-8.72-.02-4.83,3.89-8.77,8.72-8.78,0,0,.01,0,.02,0Z"/>
    </g>
  </g>
</svg>